<svg height="512pt" viewBox="-51 0 512 512.00015" width="512pt" xmlns="http://www.w3.org/2000/svg"><path d="m360.019531 179.984375h-51.042969c13.445313-23.148437 18.75-50.285156 14.734376-77.894531-3.773438-25.945313-15.566407-49.34375-34.101563-67.667969-18.527344-18.316406-42.058594-29.84375-68.050781-33.332031-34.648438-4.652344-69.472656 5.746094-95.523438 28.535156-26.078125 22.804688-41.03125 55.738281-41.03125 90.355469 0 21.429687 5.574219 41.964843 16.046875 60.003906h-51.046875c-27.574218 0-50.003906 22.429687-50.003906 50.003906 0 27.570313 22.429688 50 50.003906 50h40v94.003907l-13.992187 33.585937v.003906l-8.226563 19.738281c-7.882812 18.917969-5.800781 40.394532 5.566406 57.445313 11.367188 17.054687 30.390626 27.234375 50.886719 27.234375 24.765625 0 46.925781-14.773438 56.453125-37.632812l24.320313-58.371094 24.320312 58.371094c9.527344 22.859374 31.683594 37.632812 56.453125 37.632812 20.492188 0 39.515625-10.179688 50.886719-27.234375 11.367187-17.050781 13.449219-38.527344 5.566406-57.445313l-8.226562-19.734374c0-.003907 0-.003907 0-.003907 0-.003906 0-.003906 0-.003906l-13.996094-33.585937v-94.003907h40.003906c27.570313 0 50-22.429687 50-50 0-27.574219-22.429687-50.003906-50-50.003906zm-330.019531 50.003906c0-11.03125 8.972656-20 20.003906-20h5v40h-5c-11.03125 0-20.003906-8.972656-20.003906-20zm94.238281 252.011719c-10.597656 0-20.046875-5.058594-25.925781-13.875-5.875-8.816406-6.910156-19.480469-2.832031-29.261719l2.453125-5.894531 57.519531 23.964844-2.457031 5.894531c-4.855469 11.644531-16.140625 19.171875-28.757813 19.171875zm187.46875-13.875c-5.878906 8.816406-15.328125 13.875-25.925781 13.875-12.617188 0-23.90625-7.527344-28.757812-19.171875l-2.453126-5.894531 57.515626-23.964844 2.457031 5.894531c4.074219 9.78125 3.039062 20.445313-2.835938 29.261719zm-6.691406-218.136719c-8.285156 0-15 6.714844-15 15v112.007813c0 1.980468.390625 3.941406 1.152344 5.769531l9.378906 22.507813-57.515625 23.964843-24.171875-58.011719c-2.332031-5.589843-7.792969-9.234374-13.847656-9.234374-6.058594 0-11.519531 3.644531-13.847657 9.234374l-24.171874 58.011719-57.519532-23.964843 9.378906-22.507813c.761719-1.828125 1.15625-3.789063 1.15625-5.769531v-112.007813c0-8.285156-6.71875-15-15-15h-20.003906v-40h46.585938c6.097656 0 11.585937-3.691406 13.890625-9.335937 2.304687-5.644532.960937-12.121094-3.394531-16.386719-17.460938-17.09375-27.082032-39.921875-27.082032-64.28125 0-25.964844 11.21875-50.667969 30.78125-67.777344 19.828125-17.34375 45.320313-24.9375 71.78125-21.382812 19.476563 2.617187 37.09375 11.238281 50.949219 24.9375 13.859375 13.699219 22.675781 31.210937 25.503906 50.652343 4.234375 29.101563-5.269531 57.480469-26.085937 77.855469-4.355469 4.265625-5.695313 10.742188-3.394532 16.386719 2.304688 5.644531 7.792969 9.332031 13.890626 9.332031h46.585937v40.003907h-20zm55.003906 0h-5.003906v-40h5.003906c11.027344 0 20 8.96875 20 20 0 11.027344-8.972656 20-20 20zm0 0"/><path d="m257.511719 109.980469c0 8.285156-6.714844 15-15 15-8.285157 0-15-6.714844-15-15 0-8.285157 6.714843-15 15-15 8.285156 0 15 6.714843 15 15zm0 0"/><path d="m220.011719 249.988281c0 8.285157-6.71875 15-15 15-8.285157 0-15.003907-6.714843-15.003907-15 0-8.285156 6.71875-15 15.003907-15 8.28125 0 15 6.714844 15 15zm0 0"/><path d="m220.011719 311.992188c0 8.285156-6.71875 15-15 15-8.285157 0-15.003907-6.714844-15.003907-15 0-8.285157 6.71875-15 15.003907-15 8.28125 0 15 6.714843 15 15zm0 0"/><path d="m182.507812 109.980469c0 8.285156-6.714843 15-15 15-8.285156 0-15-6.714844-15-15 0-8.285157 6.714844-15 15-15 8.285157 0 15 6.714843 15 15zm0 0"/></svg>